<svg width="48" height="40" viewBox="0 0 48 40" fill="none" xmlns="http://www.w3.org/2000/svg">
<path d="M18.585 39.415L0.584998 21.415C0.399047 21.2293 0.251525 21.0087 0.150878 20.7659C0.050231 20.5231 -0.00157254 20.2628 -0.00157253 20C-0.00157252 19.7372 0.0502311 19.4769 0.150878 19.2341C0.251525 18.9913 0.399047 18.7708 0.584998 18.585L18.585 0.585012C18.9603 0.209731 19.4693 -0.00109988 20 -0.00109986C20.5307 -0.00109983 21.0397 0.209731 21.415 0.585012C21.7903 0.960294 22.0011 1.46928 22.0011 2.00001C22.0011 2.53074 21.7903 3.03973 21.415 3.41501L6.8275 18L46 18C46.5304 18 47.0391 18.2107 47.4142 18.5858C47.7893 18.9609 48 19.4696 48 20C48 20.5304 47.7893 21.0392 47.4142 21.4142C47.0391 21.7893 46.5304 22 46 22L6.8275 22L21.415 36.585C21.7903 36.9603 22.0011 37.4693 22.0011 38C22.0011 38.5307 21.7903 39.0397 21.415 39.415C21.0397 39.7903 20.5307 40.0011 20 40.0011C19.4693 40.0011 18.9603 39.7903 18.585 39.415Z" fill="#180D0B"/>
</svg>
