<svg width="25" height="20" viewBox="0 0 25 20" fill="none" xmlns="http://www.w3.org/2000/svg">
<path d="M7.93132 19.7506C16.9879 19.7506 21.9416 12.2473 21.9416 5.74037C21.9416 5.52728 21.9416 5.31512 21.9272 5.10391C22.8908 4.40683 23.7227 3.54381 24.3838 2.55512C23.4851 2.95333 22.5318 3.21442 21.5556 3.32983C22.5833 2.71464 23.353 1.7463 23.7204 0.606296C22.7539 1.17981 21.6964 1.58406 20.5937 1.80151C19.6627 0.811468 18.3624 0.24939 17.0034 0.24939C14.2996 0.24939 12.0747 2.47426 12.0747 5.17801C12.0747 5.55311 12.1176 5.92703 12.2023 6.29237C8.24524 6.09405 4.55327 4.22233 2.05418 1.14775C0.754617 3.38491 1.42704 6.28412 3.57865 7.72084C2.79513 7.69764 2.02845 7.48623 1.34379 7.10453V7.16692C1.34445 9.50195 3.00537 11.5315 5.29418 11.9938C4.5693 12.1915 3.80857 12.2204 3.07085 12.0783C3.7143 14.0792 5.56981 15.4584 7.67116 15.4978C5.92788 16.8678 3.77318 17.612 1.55595 17.6098C1.16416 17.6091 0.772758 17.5854 0.383789 17.5388C2.63538 18.9837 5.25598 19.7503 7.93132 19.7468" fill="#180D0B"/>
</svg>
