<svg width="21" height="22" viewBox="0 0 21 22" fill="none" xmlns="http://www.w3.org/2000/svg">
<path d="M20.3884 9.36362C17.1215 9.36201 13.8545 9.36281 10.5876 9.36319C10.588 10.7182 10.586 12.0733 10.5884 13.4279C12.4804 13.4275 14.3724 13.4271 16.264 13.4279C16.0447 14.7264 15.2731 15.9138 14.1788 16.6448C13.4908 17.1073 12.7005 17.4076 11.8857 17.5503C11.0656 17.6903 10.2182 17.7082 9.40016 17.5426C8.56828 17.3766 7.7742 17.03 7.08146 16.5414C5.97377 15.7632 5.12843 14.6246 4.69439 13.3432C4.25057 12.0399 4.24731 10.5896 4.69642 9.2875C5.00803 8.36976 5.5267 7.522 6.20805 6.8321C7.04848 5.97173 8.14114 5.35667 9.31837 5.10445C10.3264 4.88928 11.3893 4.93034 12.3763 5.22891C13.2151 5.48359 13.9884 5.94324 14.6218 6.54814C15.2621 5.91149 15.8991 5.2712 16.5382 4.63337C16.8734 4.29005 17.2257 3.96176 17.5503 3.60908C16.5797 2.71086 15.4419 1.98883 14.1987 1.5324C11.9605 0.708683 9.43636 0.691199 7.18314 1.47106C4.64393 2.34036 2.48181 4.23925 1.28303 6.63936C0.865667 7.46638 0.560954 8.34911 0.377906 9.25706C-0.0825917 11.5192 0.238377 13.9311 1.2818 15.9915C1.95993 17.3364 2.93215 18.5319 4.11146 19.4692C5.22406 20.3564 6.52089 21.0117 7.89586 21.3775C9.63083 21.8428 11.4777 21.8322 13.2241 21.4348C14.8024 21.0716 16.2957 20.3174 17.488 19.2166C18.7483 18.0584 19.6473 16.5325 20.1232 14.8928C20.6423 13.1041 20.7139 11.1946 20.3884 9.36362Z" fill="#180D0B"/>
</svg>
