<svg width="440" height="143" viewBox="0 0 440 143" fill="none" xmlns="http://www.w3.org/2000/svg">
<path d="M438.34 32.8867C439.756 40.9215 435.181 49.743 425.395 58.8534C415.627 67.946 400.775 77.2215 381.929 86.1426C344.244 103.982 290.695 120.354 230.218 131.017C169.741 141.681 113.822 144.611 72.3077 140.737C51.5471 138.8 34.4185 135.163 22.1301 129.96C9.81784 124.746 2.5017 118.021 1.08494 109.986C-0.331819 101.952 4.24308 93.1301 14.0296 84.0198C23.7972 74.9271 38.6491 65.6516 57.4951 56.7305C95.1803 38.8916 148.729 22.5195 209.207 11.8557C269.684 1.19192 325.603 -1.73815 367.117 2.13589C387.877 4.07325 405.006 7.70971 417.294 12.9133C429.607 18.127 436.923 24.8518 438.34 32.8867Z" stroke="#180D0B"/>
</svg>
