<svg width="80" height="80" viewBox="0 0 80 80" fill="none" xmlns="http://www.w3.org/2000/svg">
<path d="M36.7984 38.6734L55.5484 19.9234C55.9002 19.5715 56.3774 19.3739 56.8749 19.3739C57.3725 19.3739 57.8497 19.5715 58.2015 19.9234C58.5533 20.2752 58.751 20.7524 58.751 21.2499C58.751 21.7475 58.5533 22.2247 58.2015 22.5765L40.7757 39.9999L58.2015 57.4234C58.5533 57.7752 58.751 58.2524 58.751 58.7499C58.751 59.2475 58.5533 59.7247 58.2015 60.0765C57.8497 60.4283 57.3725 60.626 56.8749 60.626C56.3774 60.626 55.9002 60.4283 55.5484 60.0765L36.7984 41.3265C36.624 41.1524 36.4857 40.9456 36.3914 40.7179C36.297 40.4903 36.2485 40.2463 36.2485 39.9999C36.2485 39.7535 36.297 39.5095 36.3914 39.2819C36.4857 39.0543 36.624 38.8475 36.7984 38.6734ZM18.0484 41.3265L36.7984 60.0765C37.1502 60.4283 37.6274 60.626 38.1249 60.626C38.6225 60.626 39.0997 60.4283 39.4515 60.0765C39.8033 59.7247 40.001 59.2475 40.001 58.7499C40.001 58.2524 39.8033 57.7752 39.4515 57.4234L22.0257 39.9999L39.4515 22.5765C39.8033 22.2247 40.001 21.7475 40.001 21.2499C40.001 20.7524 39.8033 20.2752 39.4515 19.9234C39.0997 19.5715 38.6225 19.3739 38.1249 19.3739C37.6274 19.3739 37.1502 19.5715 36.7984 19.9234L18.0484 38.6734C17.874 38.8475 17.7357 39.0543 17.6414 39.2819C17.547 39.5095 17.4985 39.7535 17.4985 39.9999C17.4985 40.2463 17.547 40.4903 17.6414 40.7179C17.7357 40.9456 17.874 41.1524 18.0484 41.3265Z" fill="#56665A"/>
<circle cx="40" cy="40" r="38.5" transform="rotate(180 40 40)" stroke="url(#paint0_linear_60_66)" stroke-width="3"/>
<defs>
<linearGradient id="paint0_linear_60_66" x1="80" y1="40" x2="-3.8147e-06" y2="40" gradientUnits="userSpaceOnUse">
<stop offset="0.101378" stop-color="#56665A"/>
<stop offset="0.540733" stop-color="#FEF9F3"/>
</linearGradient>
</defs>
</svg>
