<svg width="64" height="64" viewBox="0 0 64 64" fill="none" xmlns="http://www.w3.org/2000/svg">
<path d="M34.5611 33.0614L19.5611 48.0614C19.2796 48.3428 18.8979 48.5009 18.4999 48.5009C18.1018 48.5009 17.7201 48.3428 17.4386 48.0614C17.1571 47.7799 16.999 47.3981 16.999 47.0001C16.999 46.6021 17.1571 46.2203 17.4386 45.9389L31.3792 32.0001L17.4386 18.0614C17.1571 17.7799 16.999 17.3981 16.999 17.0001C16.999 16.6021 17.1571 16.2203 17.4386 15.9389C17.7201 15.6574 18.1018 15.4993 18.4999 15.4993C18.8979 15.4993 19.2796 15.6574 19.5611 15.9389L34.5611 30.9389C34.7006 31.0782 34.8112 31.2436 34.8867 31.4257C34.9622 31.6078 35.001 31.803 35.001 32.0001C35.001 32.1972 34.9622 32.3924 34.8867 32.5745C34.8112 32.7566 34.7006 32.922 34.5611 33.0614ZM49.5611 30.9389L34.5611 15.9389C34.2796 15.6574 33.8979 15.4993 33.4999 15.4993C33.1018 15.4993 32.7201 15.6574 32.4386 15.9389C32.1571 16.2203 31.999 16.6021 31.999 17.0001C31.999 17.3981 32.1571 17.7799 32.4386 18.0614L46.3792 32.0001L32.4386 45.9389C32.1571 46.2203 31.999 46.6021 31.999 47.0001C31.999 47.3981 32.1571 47.7799 32.4386 48.0614C32.7201 48.3428 33.1018 48.5009 33.4999 48.5009C33.8979 48.5009 34.2796 48.3428 34.5611 48.0614L49.5611 33.0614C49.7006 32.922 49.8112 32.7566 49.8867 32.5745C49.9622 32.3924 50.001 32.1972 50.001 32.0001C50.001 31.803 49.9622 31.6078 49.8867 31.4257C49.8112 31.2436 49.7006 31.0782 49.5611 30.9389Z" fill="#FEF9F3"/>
<circle cx="32" cy="32" r="30.5" transform="rotate(180 32 32)" stroke="url(#paint0_linear_162_510)" stroke-width="3"/>
<defs>
<linearGradient id="paint0_linear_162_510" x1="64" y1="32" x2="-1.90735e-06" y2="32" gradientUnits="userSpaceOnUse">
<stop offset="0.101378" stop-color="#56665A"/>
<stop offset="0.540733" stop-color="#FEF9F3"/>
</linearGradient>
</defs>
</svg>
