<svg width="38" height="38" viewBox="0 0 38 38" fill="none" xmlns="http://www.w3.org/2000/svg">
<g clip-path="url(#clip0_59_10)">
<path d="M19 26.5C23.1421 26.5 26.5 23.1421 26.5 19C26.5 14.8579 23.1421 11.5 19 11.5C14.8579 11.5 11.5 14.8579 11.5 19C11.5 23.1421 14.8579 26.5 19 26.5Z" stroke="#180D0B" stroke-width="2" stroke-linecap="round" stroke-linejoin="round"/>
<path d="M27.25 1.75H10.75C5.77944 1.75 1.75 5.77944 1.75 10.75V27.25C1.75 32.2206 5.77944 36.25 10.75 36.25H27.25C32.2206 36.25 36.25 32.2206 36.25 27.25V10.75C36.25 5.77944 32.2206 1.75 27.25 1.75Z" stroke="#180D0B" stroke-width="2" stroke-linecap="round" stroke-linejoin="round"/>
<path d="M28.75 10.75C29.5784 10.75 30.25 10.0784 30.25 9.25C30.25 8.42157 29.5784 7.75 28.75 7.75C27.9216 7.75 27.25 8.42157 27.25 9.25C27.25 10.0784 27.9216 10.75 28.75 10.75Z" fill="#180D0B"/>
</g>
<defs>
<clipPath id="clip0_59_10">
<rect width="38" height="38" fill="white"/>
</clipPath>
</defs>
</svg>
