<svg width="103" height="115" viewBox="0 0 103 115" fill="none" xmlns="http://www.w3.org/2000/svg">
<path d="M40 13L41.883 28.0899C44.1211 46.026 57.873 60.3488 75.6765 63.2866L80 64L75.6765 64.7134C57.8729 67.6512 44.1211 81.974 41.883 99.91L40 115L38.117 99.9101C35.8789 81.974 22.127 67.6512 4.32351 64.7134L0 64L4.32351 63.2866C22.1271 60.3488 35.8789 46.026 38.117 28.0899L40 13Z" fill="#56665A"/>
<path fill-rule="evenodd" clip-rule="evenodd" d="M79.7998 8.2167L79.7174 10.4223C79.4736 16.9439 74.1957 22.1741 67.6178 22.4125L65.2029 22.5L67.6178 22.5875C74.1957 22.8259 79.4736 28.0561 79.7174 34.5777L79.7998 36.7833L79.8822 34.5777C80.126 28.0561 85.404 22.8259 91.9818 22.5875L94.3967 22.5L91.9818 22.4125C85.4039 22.1741 80.126 16.9439 79.8822 10.4223L79.7998 8.2167ZM79.4935 2.26425e-09L80.1061 0L80.4949 10.3998C80.7268 16.6033 85.7472 21.5784 92.0042 21.8051L102.8 22.1963V22.8037L92.0042 23.1949C85.7472 23.4216 80.7268 28.3967 80.4949 34.6002L80.1061 45H79.4935L79.1047 34.6002C78.8728 28.3967 73.8524 23.4216 67.5954 23.1949L56.7998 22.8037L56.7998 22.1963L67.5954 21.8051C73.8524 21.5784 78.8728 16.6033 79.1047 10.3998L79.4935 2.26425e-09Z" fill="#180D0B"/>
</svg>
