<svg width="33" height="32" viewBox="0 0 33 32" fill="none" xmlns="http://www.w3.org/2000/svg">
<path d="M31.75 7.90051L24.6011 0.750022C24.3634 0.512239 24.0811 0.323617 23.7705 0.194927C23.4599 0.0662365 23.1269 0 22.7907 0C22.4544 0 22.1215 0.0662365 21.8109 0.194927C21.5002 0.323617 21.218 0.512239 20.9803 0.750022L1.25042 20.4815C1.01167 20.7183 0.822374 21.0003 0.69355 21.3109C0.564725 21.6216 0.498938 21.9548 0.500013 22.2911V29.4416C0.500013 30.1205 0.76973 30.7717 1.24983 31.2518C1.72993 31.7319 2.38108 32.0016 3.06004 32.0016H10.2105C10.5468 32.0027 10.88 31.9369 11.1907 31.808C11.5013 31.6792 11.7833 31.4899 12.0201 31.2512L31.75 11.5213C31.9878 11.2836 32.1764 11.0014 32.3051 10.6907C32.4338 10.3801 32.5 10.0472 32.5 9.71093C32.5 9.37469 32.4338 9.04175 32.3051 8.73111C32.1764 8.42048 31.9878 8.13823 31.75 7.90051ZM10.2105 29.4416H3.06004V22.2911L17.1402 8.21091L24.2907 15.3614L10.2105 29.4416ZM26.1003 13.5502L18.9498 6.40129L22.7899 2.56124L29.9404 9.71013L26.1003 13.5502Z" fill="white"/>
</svg>
