<svg width="17" height="18" viewBox="0 0 17 18" fill="none" xmlns="http://www.w3.org/2000/svg">
<path d="M9.28055 9.53061L1.78055 17.0306C1.63982 17.1713 1.44895 17.2504 1.24993 17.2504C1.05091 17.2504 0.860034 17.1713 0.719304 17.0306C0.578573 16.8899 0.499512 16.699 0.499512 16.5C0.499512 16.301 0.578573 16.1101 0.719304 15.9694L7.68962 8.99999L0.719304 2.03061C0.578573 1.88988 0.499512 1.69901 0.499512 1.49999C0.499512 1.30097 0.578573 1.1101 0.719304 0.969365C0.860034 0.828634 1.05091 0.749573 1.24993 0.749573C1.44895 0.749573 1.63982 0.828634 1.78055 0.969365L9.28055 8.46936C9.35029 8.53902 9.40561 8.62174 9.44335 8.71278C9.48109 8.80383 9.50052 8.90143 9.50052 8.99999C9.50052 9.09855 9.48109 9.19615 9.44335 9.2872C9.40561 9.37824 9.35029 9.46096 9.28055 9.53061ZM16.7806 8.46936L9.28055 0.969365C9.13982 0.828634 8.94895 0.749573 8.74993 0.749573C8.55091 0.749573 8.36003 0.828634 8.2193 0.969365C8.07857 1.1101 7.99951 1.30097 7.99951 1.49999C7.99951 1.69901 8.07857 1.88988 8.2193 2.03061L15.1896 8.99999L8.2193 15.9694C8.07857 16.1101 7.99951 16.301 7.99951 16.5C7.99951 16.699 8.07857 16.8899 8.2193 17.0306C8.36003 17.1713 8.55091 17.2504 8.74993 17.2504C8.94895 17.2504 9.13982 17.1713 9.28055 17.0306L16.7806 9.53061C16.8503 9.46096 16.9056 9.37824 16.9433 9.2872C16.9811 9.19615 17.0005 9.09855 17.0005 8.99999C17.0005 8.90143 16.9811 8.80383 16.9433 8.71278C16.9056 8.62174 16.8503 8.53902 16.7806 8.46936Z" fill="#56665A"/>
</svg>
