<svg width="32" height="32" viewBox="0 0 32 32" fill="none" xmlns="http://www.w3.org/2000/svg">
<path d="M30.4011 3.16775C29.9851 2.81575 29.3131 2.78375 28.1611 3.13575C27.3611 3.39175 20.2571 6.07975 13.9851 8.67175C8.35306 11.0078 3.77706 13.0558 3.23306 13.3118C2.62506 13.5038 1.31306 14.0798 1.24906 14.9758C1.21706 15.5518 1.69706 16.0638 2.62506 16.4798C3.61706 16.9918 8.00106 18.4638 8.92906 18.7518C9.24906 19.8398 11.1371 26.2078 11.2331 26.5917C11.3611 27.1677 11.7451 27.4878 11.9371 27.6158C11.9691 27.6478 12.0331 27.7118 12.0971 27.7437C12.1931 27.8077 12.3211 27.8398 12.4811 27.8398C12.7051 27.8398 12.9611 27.7437 13.1851 27.5837C14.3691 26.6237 16.4171 24.4797 16.9931 23.8717C19.5211 25.8557 22.2731 28.0638 22.5291 28.3197L22.5611 28.3517C23.1691 28.8638 23.8091 29.1518 24.3851 29.1518C24.5771 29.1518 24.7691 29.1198 24.9611 29.0558C25.6331 28.8318 26.1131 28.1918 26.2731 27.3278C26.2731 27.2958 26.3051 27.1677 26.3691 26.9438C27.4571 22.2078 28.3211 18.0478 29.0251 14.5598C29.6971 11.1358 30.2411 7.77575 30.5611 5.98375C30.6251 5.53575 30.6891 5.18375 30.7211 4.95975C30.8171 4.31975 30.8811 3.58375 30.4011 3.16775ZM9.60106 18.6558L24.8651 8.54375C24.8971 8.51175 24.9611 8.47975 24.9931 8.44775C25.0251 8.44775 25.0251 8.41575 25.0571 8.41575C25.0891 8.41575 25.0891 8.41575 25.1211 8.38375C25.0891 8.41575 25.0571 8.51175 24.9931 8.57575L21.1211 12.1918C18.4331 14.6558 14.9131 17.8878 12.5771 19.9998C12.5771 19.9998 12.5771 19.9998 12.5771 20.0318L12.5451 20.0638C12.5451 20.0638 12.5451 20.0958 12.5131 20.0958C12.5131 20.1278 12.5131 20.1278 12.4811 20.1598V20.1918C12.4811 20.1918 12.4811 20.1918 12.4811 20.2238C12.3211 22.0158 12.0331 25.0877 11.9051 26.4637C11.9051 26.4637 11.9051 26.4638 11.9051 26.4317C11.7771 26.0478 9.98506 19.9358 9.60106 18.6558Z" fill="white"/>
</svg>
