<svg width="64" height="57" viewBox="0 0 64 57" fill="none" xmlns="http://www.w3.org/2000/svg">
<path d="M40.7693 8.20968C40.7693 9.36099 39.9847 10.5566 38.4157 11.7964C39.8453 13.9396 40.5601 15.9146 40.5601 17.7212C40.5601 18.164 40.4293 18.3854 40.1678 18.3854C39.9586 18.3854 39.854 18.0932 39.854 17.5087C39.854 15.7374 39.2438 13.9396 38.0234 12.1153C35.4955 14.0282 32.0523 15.6843 27.6938 17.0836C23.3528 18.4651 19.4999 19.1559 16.1351 19.1559C15.6644 19.1559 15.2547 19.1382 14.906 19.1028C12.1166 23.0527 10.7219 26.8608 10.7219 30.5273C10.7219 33.0247 11.4802 34.9996 12.997 36.4521C14.5312 37.9045 16.6145 38.6307 19.2471 38.6307C24.2157 38.6307 28.644 36.2129 32.5317 31.3775C34.8853 28.4549 36.0621 25.6829 36.0621 23.0615C36.0621 21.6799 35.6524 20.5818 34.833 19.767C34.0136 18.9522 32.924 18.5449 31.5642 18.5449C29.3849 18.5449 27.04 19.7139 24.5296 22.0519C22.0365 24.3722 20.79 26.542 20.79 28.5612C20.79 28.7383 20.8423 28.8269 20.9469 28.8269C21.034 28.8092 21.1038 28.7737 21.1561 28.7206C21.6268 28.2955 22.0627 28.083 22.4636 28.083C23.3528 28.083 23.7973 28.5701 23.7973 29.5442C23.7973 30.8549 23.1697 31.5103 21.9145 31.5103C20.7638 31.5103 20.1885 30.8018 20.1885 29.3848C20.1885 26.852 21.4525 24.3457 23.9804 21.8659C26.5083 19.3685 29.0711 18.1198 31.6688 18.1198C35.0161 18.1198 36.6897 19.9884 36.6897 23.7257C36.6897 27.587 34.8679 31.1118 31.2242 34.3C27.5979 37.4705 23.5707 39.0558 19.1425 39.0558C16.0567 39.0558 13.459 38.0019 11.3495 35.8941C9.25742 33.7863 8.21139 31.1826 8.21139 28.083C8.21139 25.0719 9.24871 21.9811 11.3233 18.8105C3.77445 17.3935 0 14.3647 0 9.72409C0 6.96096 1.40343 4.6495 4.2103 2.7897C7.01716 0.9299 10.5127 0 14.6968 0C20.5372 0 26.4386 1.97493 32.401 5.92479C33.4296 5.71224 34.4843 5.60597 35.5652 5.60597C39.0346 5.60597 40.7693 6.47387 40.7693 8.20968ZM40.3509 8.20968C40.3509 6.75727 38.9561 6.03106 36.1667 6.03106C35.295 6.03106 34.2577 6.15505 33.0548 6.40302C35.1294 7.85544 36.8466 9.54697 38.2065 11.4776C39.6361 10.2378 40.3509 9.14844 40.3509 8.20968ZM37.8142 11.7433C36.4718 9.77723 34.6674 8.03256 32.401 6.5093C29.1408 7.41263 25.9591 8.97132 22.8559 11.1854C19.7527 13.3817 17.2073 15.888 15.2198 18.7043C18.8635 18.7043 22.8908 18.0312 27.3016 16.6851C31.7298 15.3212 35.234 13.674 37.8142 11.7433ZM31.6688 6.03106C26.3688 2.91369 20.729 1.355 14.7491 1.355C11.0531 1.355 7.81912 2.24061 5.04713 4.01185C2.29256 5.78309 0.915282 7.85544 0.915282 10.2289C0.915282 14.4622 4.45437 17.1987 11.5326 18.4386C15.9259 12.2215 22.638 8.0857 31.6688 6.03106Z" fill="white"/>
<path d="M63.7908 14.2778C63.9128 14.1892 63.9826 14.1184 64 14.0652C64 13.8527 63.9128 13.7464 63.7385 13.7464C63.7036 13.7464 63.6164 13.7818 63.477 13.8527L63.137 14.0652C58.517 17.2003 53.9319 21.6992 49.3816 27.562C44.9709 33.2477 41.4143 37.3038 38.7121 39.7304C36.0098 42.1393 33.6911 43.3438 31.7559 43.3438C29.6813 43.3438 28.7727 42.3607 29.1321 40.5348C29.4111 39.1178 30.152 38.0019 30.8145 36.8506C31.4944 35.6816 32.5143 33.6092 34.9899 30.3324C37.8665 26.5597 39.1741 23.2668 40.1504 21.2122C41.1267 19.1398 41.6148 17.0143 41.6148 14.8357C41.6148 12.0903 40.8216 9.93824 39.2351 8.37955C37.6486 6.80315 35.8267 5.91752 33.0896 5.9618L32.7584 6.48432C37.6922 6.48432 40.1242 8.51239 40.1242 12.6571C40.1242 15.7922 38.189 19.8483 34.3187 24.8255C31.3201 28.7222 29.35 31.5385 28.4086 33.2743C27.4672 35.0101 26.9965 36.7105 26.9965 38.3754C26.9965 40.005 27.4149 41.3334 28.2517 42.3607C29.106 43.3703 30.2043 43.8751 31.5467 43.8751C33.7783 43.8751 36.6549 42.2102 40.1765 38.8802C42.0594 37.0913 44.9273 33.8411 48.7802 29.1296C47.1937 31.6979 45.8251 34.0359 44.6745 36.1437C41.3446 42.2722 38.869 46.3903 37.2476 48.4981C35.5914 50.659 33.447 52.5365 30.8145 54.1306C28.1994 55.7424 25.4448 56.5483 22.5508 56.5483C20.4064 56.5483 18.6369 56.0258 17.2422 54.9808C15.8475 53.9535 15.1501 52.6516 15.1501 51.0752C15.1501 50.5261 15.2634 49.9948 15.4901 49.4811C15.7341 48.9851 15.9782 48.7372 16.2223 48.7372C16.292 48.7372 16.3269 48.7903 16.3269 48.8966C16.3269 49.0206 16.3095 49.1268 16.2746 49.2154C16.2048 49.3925 16.17 49.5874 16.17 49.7999C16.17 50.6855 16.632 51.1283 17.556 51.1283C18.0964 51.1283 18.5584 50.9069 18.942 50.4641C19.343 50.039 19.5434 49.5342 19.5434 48.9497C19.5434 47.8516 18.9768 47.3025 17.8436 47.3025C16.9545 47.3025 16.1961 47.6656 15.5685 48.3918C14.9409 49.1357 14.6271 50.0302 14.6271 51.0752C14.6271 52.811 15.3855 54.228 16.9022 55.3262C18.419 56.4421 20.3541 57 22.7077 57C27.4497 57 32.061 55.2996 36.5415 51.8988C41.0221 48.5158 44.5699 43.9903 47.185 38.3223C50.2359 31.7333 52.9905 26.641 55.4487 23.0454C57.994 19.3612 60.7747 16.4387 63.7908 14.2778Z" fill="white"/>
</svg>
