<svg width="47" height="42" viewBox="0 0 47 42" fill="none" xmlns="http://www.w3.org/2000/svg">
<path d="M29.9399 6.04924C29.9399 6.89757 29.3638 7.77853 28.2115 8.69211C29.2614 10.2713 29.7863 11.7265 29.7863 13.0577C29.7863 13.384 29.6903 13.5472 29.4982 13.5472C29.3446 13.5472 29.2678 13.3318 29.2678 12.9011C29.2678 11.596 28.8197 10.2713 27.9235 8.92703C26.067 10.3366 23.5384 11.5569 20.3376 12.5879C17.1497 13.6059 14.3202 14.1149 11.8492 14.1149C11.5035 14.1149 11.2027 14.1018 10.9466 14.0757C8.89812 16.9862 7.87388 19.7922 7.87388 22.4938C7.87388 24.334 8.43081 25.7892 9.54467 26.8594C10.6713 27.9296 12.2013 28.4647 14.1346 28.4647C17.7834 28.4647 21.0354 26.6832 23.8905 23.1202C25.6189 20.9668 26.4831 18.9243 26.4831 16.9927C26.4831 15.9747 26.1822 15.1655 25.5805 14.5652C24.9788 13.9648 24.1786 13.6646 23.1799 13.6646C21.5795 13.6646 19.8575 14.526 18.0139 16.2488C16.1831 17.9585 15.2676 19.5573 15.2676 21.0451C15.2676 21.1756 15.306 21.2409 15.3829 21.2409C15.4469 21.2278 15.4981 21.2017 15.5365 21.1626C15.8822 20.8493 16.2023 20.6927 16.4967 20.6927C17.1497 20.6927 17.4762 21.0516 17.4762 21.7694C17.4762 22.7352 17.0153 23.2181 16.0934 23.2181C15.2484 23.2181 14.8259 22.6961 14.8259 21.652C14.8259 19.7857 15.7542 17.9389 17.6106 16.1117C19.467 14.2715 21.3491 13.3514 23.2567 13.3514C25.7149 13.3514 26.944 14.7283 26.944 17.4821C26.944 20.3273 25.6061 22.9245 22.9303 25.2737C20.2672 27.6099 17.3097 28.7779 14.0577 28.7779C11.7916 28.7779 9.88396 28.0014 8.33479 26.4483C6.79842 24.8952 6.03024 22.9767 6.03024 20.6927C6.03024 18.474 6.79202 16.1966 8.31558 13.8604C2.77186 12.8163 0 10.5845 0 7.16512C0 5.12913 1.03065 3.42595 3.09194 2.05557C5.15323 0.685189 7.72024 0 10.793 0C15.082 0 19.4158 1.45521 23.7945 4.36563C24.5499 4.20902 25.3244 4.13071 26.1182 4.13071C28.666 4.13071 29.9399 4.77022 29.9399 6.04924ZM29.6327 6.04924C29.6327 4.97904 28.6084 4.44394 26.5599 4.44394C25.9198 4.44394 25.158 4.5353 24.2746 4.71802C25.7981 5.78822 27.0592 7.03461 28.0579 8.45719C29.1077 7.54361 29.6327 6.74096 29.6327 6.04924ZM27.7698 8.65296C26.784 7.20427 25.4589 5.91873 23.7945 4.79632C21.4003 5.46194 19.0637 6.61044 16.7848 8.24185C14.5059 9.8602 12.6366 11.7069 11.1771 13.7821C13.8529 13.7821 16.8104 13.2861 20.0496 12.2943C23.3016 11.2893 25.875 10.0755 27.7698 8.65296ZM23.2567 4.44394C19.3646 2.14693 15.2228 0.998418 10.8314 0.998418C8.11713 0.998418 5.74217 1.65098 3.70648 2.9561C1.6836 4.26122 0.67216 5.78822 0.67216 7.53708C0.67216 10.6563 3.27118 12.6727 8.46922 13.5863C11.6956 9.00534 16.6248 5.95788 23.2567 4.44394Z" fill="#180D0B"/>
<path d="M46.8464 10.5205C46.936 10.4552 46.9872 10.403 47 10.3638C47 10.2072 46.936 10.1289 46.808 10.1289C46.7823 10.1289 46.7183 10.155 46.6159 10.2072L46.3662 10.3638C42.9734 12.6739 39.6062 15.9889 36.2646 20.3089C33.0255 24.4983 30.4136 27.487 28.4292 29.2751C26.4447 31.05 24.7419 31.9375 23.3208 31.9375C21.7972 31.9375 21.1299 31.2132 21.3939 29.8677C21.5987 28.8236 22.1429 28.0014 22.6294 27.1531C23.1287 26.2917 23.8777 24.7647 25.6957 22.3502C27.8082 19.5703 28.7685 17.144 29.4854 15.63C30.2024 14.103 30.5609 12.5369 30.5609 10.9316C30.5609 8.90863 29.9783 7.32291 28.8133 6.1744C27.6482 5.01284 26.3103 4.36028 24.3002 4.3929L24.0569 4.77792C27.6802 4.77792 29.4662 6.27229 29.4662 9.32627C29.4662 11.6363 28.0451 14.6251 25.2028 18.2925C23.0007 21.1637 21.5539 23.2389 20.8626 24.5179C20.1712 25.7969 19.8255 27.0498 19.8255 28.2766C19.8255 29.4774 20.1328 30.4562 20.7473 31.2132C21.3747 31.9571 22.1813 32.329 23.1671 32.329C24.8059 32.329 26.9184 31.1022 29.5046 28.6486C30.8874 27.3304 32.9935 24.9355 35.8229 21.4639C34.6579 23.3563 33.6528 25.0791 32.8078 26.6322C30.3624 31.1479 28.5444 34.1823 27.3537 35.7354C26.1374 37.3277 24.5627 38.7111 22.6294 39.8857C20.7089 41.0734 18.6861 41.6672 16.5607 41.6672C14.986 41.6672 13.6865 41.2822 12.6622 40.5122C11.638 39.7552 11.1259 38.7959 11.1259 37.6344C11.1259 37.2298 11.2091 36.8382 11.3755 36.4598C11.5548 36.0943 11.734 35.9116 11.9132 35.9116C11.9645 35.9116 11.9901 35.9508 11.9901 36.0291C11.9901 36.1204 11.9773 36.1987 11.9516 36.264C11.9004 36.3945 11.8748 36.5381 11.8748 36.6947C11.8748 37.3472 12.2141 37.6735 12.8927 37.6735C13.2896 37.6735 13.6288 37.5104 13.9105 37.1841C14.205 36.8709 14.3522 36.4989 14.3522 36.0682C14.3522 35.259 13.9361 34.8545 13.1039 34.8545C12.451 34.8545 11.894 35.122 11.4331 35.6571C10.9722 36.2053 10.7418 36.8643 10.7418 37.6344C10.7418 38.9134 11.2987 39.9575 12.4126 40.7667C13.5264 41.5889 14.9476 42 16.676 42C20.1584 42 23.5448 40.7471 26.8352 38.2412C30.1256 35.7485 32.731 32.4139 34.6515 28.2375C36.892 23.3824 38.9149 19.6302 40.7201 16.9808C42.5893 14.2662 44.6314 12.1127 46.8464 10.5205Z" fill="#180D0B"/>
</svg>
