<svg width="47" height="45" viewBox="0 0 47 45" fill="none" xmlns="http://www.w3.org/2000/svg">
<path fill-rule="evenodd" clip-rule="evenodd" d="M23.7998 8.2167L23.7174 10.4223C23.4736 16.9439 18.1957 22.1741 11.6178 22.4125L9.20291 22.5L11.6178 22.5875C18.1957 22.8259 23.4736 28.0561 23.7174 34.5777L23.7998 36.7833L23.8822 34.5777C24.126 28.0561 29.404 22.8259 35.9818 22.5875L38.3967 22.5L35.9818 22.4125C29.4039 22.1741 24.126 16.9439 23.8822 10.4223L23.7998 8.2167ZM23.4935 2.26425e-09L24.1061 0L24.4949 10.3998C24.7268 16.6033 29.7472 21.5784 36.0042 21.8051L46.7998 22.1963V22.8037L36.0042 23.1949C29.7472 23.4216 24.7268 28.3967 24.4949 34.6002L24.1061 45H23.4935L23.1047 34.6002C22.8728 28.3967 17.8524 23.4216 11.5954 23.1949L0.799805 22.8037L0.799805 22.1963L11.5954 21.8051C17.8524 21.5784 22.8728 16.6033 23.1047 10.3998L23.4935 2.26425e-09Z" fill="#180D0B"/>
</svg>
